{"title":"The Eclipse 2009 DVDRip GoGo(Extra Torrent)","uid":5660120,"size":629327827,"categoryP":"video","categoryS":"movies","magnet":"?xt=urn:btih:7dfac497b3a7629fb1caa7c1ec006ef24d4ca4aa&amp;dn=The+Eclipse+2009+DVDRip+GoGo%28Extra+Torrent%29&amp;tr=udp%3A%2F%2Ftracker.openbittorrent.com%3A80&amp;tr=udp%3A%2F%2Fopen.demonii.com%3A1337&amp;tr=udp%3A%2F%2Ftracker.coppersurfer.tk%3A6969&amp;tr=udp%3A%2F%2Fexodus.desync.com%3A6969","seeders":0,"leechers":1,"uploader":"fasamoo","files":-1,"time":1277941170,"description":"extratorrent.com   &lt;a href=&quot;\nhttp://extratorrent.com/torrent/2259935/&quot; rel=&quot;nofollow&quot; target=&quot;_NEW&quot;&gt;\nhttp://extratorrent.com/torrent/2259935/&lt;/a&gt;\n\n\nPlot:\n\nIf there is life after death - love lives on\nIn a seaside Irish town, a widower sparks with a visiting horror novelist while he also begins to believe he is seeing ghosts.\n\n\nImages:\n\n\nTrailer:\n\n\nInfo\n \nGeneral\nComplete name                    : The Eclipse 2009 DVDRip GoGo(Extra \nTorrent)The Eclipse 2009 DVDRip GoGo(Extra Torrent).avi\nIMDB Link                        : http://www.imdb.com/title/tt1346961/\nFormat                           : AVI\nFormat/Info                      : Audio Video Interleave\nFile size                        : 600 MiB\nDuration                         : 1h 27mn\nOverall bit rate                 : 959 Kbps\nWriting application              : VirtualDubMod 1.5.4.1 (build \n\n2178/release)\nWriting library                  : VirtualDubMod build 2178/release\n\nVideo\nID                               : 0\nFormat                           : MPEG-4 Visual\nFormat profile                   : Advanced Simple@L5\nFormat settings, BVOP            : Yes\nFormat settings, QPel            : No\nFormat settings, GMC             : No warppoints\nFormat settings, Matrix          : Custom\nCodec ID                         : XVID\nCodec ID/Hint                    : XviD\nDuration                         : 1h 27mn\nBit rate                         : 833 Kbps\nWidth                            : 720 pixels\nHeight                           : 368 pixels\nDisplay aspect ratio             : 1.957\nFrame rate                       : 25.000 fps\nColor space                      : YUV\nChroma subsampling               : 4:2:0\nBit depth                        : 8 bits\nScan type                        : Progressive\nBits/(Pixel*Frame)               : 0.126\nStream size                      : 521 MiB (87%)\nWriting library                  : XviD 1.2.1 (UTC 2008-12-04)\n\nAudio\nID                               : 1\nFormat                           : MPEG Audio\nFormat version                   : Version 1\nFormat profile                   : Layer 3\nMode                             : Joint stereo\nMode extension                   : MS Stereo\nCodec ID                         : 55\nCodec ID/Hint                    : MP3\nDuration                         : 1h 27mn\nBit rate mode                    : Variable\nBit rate                         : 113 Kbps\nNominal bit rate                 : 128 Kbps\nChannel(s)                       : 2 channels\nSampling rate                    : 48.0 KHz\nStream size                      : 70.7 MiB (12%)\nAlignment                        : Aligned on interleaves\nInterleave, duration             : 24 ms (0.60 video frame)\nInterleave, preload duration     : 479 ms\nWriting library                  : LAME3.98r\nEncoding settings                : -m j -V 4 -q 2 -lowpass 17 --abr 128\nLanguage                         : English\nSubtitles                        : None\nGenre                            : Drama | Horror | Romance\n \n","torrent":{"xt":"urn:btih:7dfac497b3a7629fb1caa7c1ec006ef24d4ca4aa","amp;dn":"The+Eclipse+2009+DVDRip+GoGo%28Extra+Torrent%29","amp;tr":["udp%3A%2F%2Ftracker.openbittorrent.com%3A80","udp%3A%2F%2Fopen.demonii.com%3A1337","udp%3A%2F%2Ftracker.coppersurfer.tk%3A6969","udp%3A%2F%2Fexodus.desync.com%3A6969"],"infoHash":"7dfac497b3a7629fb1caa7c1ec006ef24d4ca4aa","infoHashBuffer":{"type":"Buffer","data":[125,250,196,151,179,167,98,159,177,202,167,193,236,0,110,242,77,76,164,170]},"announce":[],"urlList":[]}}